<svg xmlns="http://www.w3.org/2000/svg" width="800" height="400" viewBox="0 0 800 400">
  <!-- Background gradient -->
  <defs>
    <linearGradient id="skyGradient" x1="0%" y1="0%" x2="0%" y2="100%">
      <stop offset="0%" style="stop-color:#1e88e5;stop-opacity:1" />
      <stop offset="100%" style="stop-color:#64b5f6;stop-opacity:1" />
    </linearGradient>
  </defs>
  
  <!-- Sky background -->
  <rect width="800" height="400" fill="url(#skyGradient)" />
  
  <!-- Sun -->
  <circle cx="650" cy="80" r="60" fill="#ffeb3b" />
  <circle cx="650" cy="80" r="50" fill="#fdd835" />
  
  <!-- Sun rays -->
  <line x1="650" y1="10" x2="650" y2="0" stroke="#ffeb3b" stroke-width="8" />
  <line x1="650" y1="160" x2="650" y2="170" stroke="#ffeb3b" stroke-width="8" />
  <line x1="580" y1="80" x2="570" y2="80" stroke="#ffeb3b" stroke-width="8" />
  <line x1="730" y1="80" x2="740" y2="80" stroke="#ffeb3b" stroke-width="8" />
  <line x1="602" y1="32" x2="592" y2="22" stroke="#ffeb3b" stroke-width="8" />
  <line x1="698" y1="128" x2="708" y2="138" stroke="#ffeb3b" stroke-width="8" />
  <line x1="602" y1="128" x2="592" y2="138" stroke="#ffeb3b" stroke-width="8" />
  <line x1="698" y1="32" x2="708" y2="22" stroke="#ffeb3b" stroke-width="8" />
  
  <!-- Clouds -->
  <!-- Cloud 1 -->
  <g transform="translate(150, 100) scale(1.2)">
    <circle cx="10" cy="30" r="30" fill="#ffffff" />
    <circle cx="50" cy="30" r="40" fill="#ffffff" />
    <circle cx="90" cy="30" r="30" fill="#ffffff" />
    <rect x="10" y="30" width="80" height="30" fill="#ffffff" />
  </g>
  
  <!-- Cloud 2 -->
  <g transform="translate(400, 70) scale(0.8)">
    <circle cx="10" cy="30" r="30" fill="#ffffff" />
    <circle cx="50" cy="30" r="40" fill="#ffffff" />
    <circle cx="90" cy="30" r="30" fill="#ffffff" />
    <rect x="10" y="30" width="80" height="30" fill="#ffffff" />
  </g>
  
  <!-- Cloud 3 -->
  <g transform="translate(250, 150) scale(1)">
    <circle cx="10" cy="30" r="30" fill="#ffffff" opacity="0.8" />
    <circle cx="50" cy="30" r="40" fill="#ffffff" opacity="0.8" />
    <circle cx="90" cy="30" r="30" fill="#ffffff" opacity="0.8" />
    <rect x="10" y="30" width="80" height="30" fill="#ffffff" opacity="0.8" />
  </g>
  
  <!-- Rain drops -->
  <g transform="translate(100, 200)">
    <path d="M10,0 L5,20 L15,20 Z" fill="#2196f3" transform="rotate(180, 10, 10)" />
    <path d="M40,0 L35,20 L45,20 Z" fill="#2196f3" transform="rotate(180, 40, 10)" />
    <path d="M70,0 L65,20 L75,20 Z" fill="#2196f3" transform="rotate(180, 70, 10)" />
    <path d="M100,0 L95,20 L105,20 Z" fill="#2196f3" transform="rotate(180, 100, 10)" />
    <path d="M130,0 L125,20 L135,20 Z" fill="#2196f3" transform="rotate(180, 130, 10)" />
  </g>
  
  <!-- Lightning bolt -->
  <path d="M500,180 L480,240 L510,240 L490,300" stroke="#ffeb3b" stroke-width="8" fill="none" />
  
  <!-- Thermometer -->
  <g transform="translate(600, 200)">
    <rect x="20" y="0" width="20" height="100" rx="10" ry="10" fill="#ffffff" stroke="#e53935" stroke-width="3" />
    <circle cx="30" cy="100" r="15" fill="#e53935" />
    <rect x="25" y="20" width="10" height="60" fill="#e53935" />
    <line x1="50" y1="20" x2="40" y2="20" stroke="#ffffff" stroke-width="2" />
    <line x1="50" y1="40" x2="40" y2="40" stroke="#ffffff" stroke-width="2" />
    <line x1="50" y1="60" x2="40" y2="60" stroke="#ffffff" stroke-width="2" />
    <line x1="50" y1="80" x2="40" y2="80" stroke="#ffffff" stroke-width="2" />
  </g>
  
  <!-- Wind lines -->
  <g transform="translate(350, 250)">
    <path d="M0,20 Q50,0 100,20" stroke="#ffffff" stroke-width="5" fill="none" />
    <path d="M0,40 Q70,20 120,40" stroke="#ffffff" stroke-width="5" fill="none" />
    <path d="M20,60 Q90,40 140,60" stroke="#ffffff" stroke-width="5" fill="none" />
  </g>
</svg>